PathFileType	4	(X/Y/Z)	C:\Users\u0145647\OneDrive - KU Leuven\KU Leuven\c3d2osim\CP4\T0\Data\Processed\ViconC3D_CP4_2\CP4_T0_13_gapFilled.trc
DataRate	CameraRate	NumFrames	NumMarkers	Units	OrigDataRate	OrigDataStartFrame	OrigNumFrames
100.000000	100.000000	7	47	mm	100.000000	287	573
Frame#	Time	C7			T10			CLAV			STRN			LSHO			RSHO			RBAK			LASI			RASI			LPSI			RPSI			LLAT			RLAT			LF1			LF2			LF3			LTHI			LKNE			LMEK			RF1			RF2			RF3			RTHI			RKNE			RMEK			LT1			LT2			LT3			LTIB			LANK			LMM			RT1			RT2			RT3			RTIB			RANK			RMM			LHEE			LSTL			LLCA			LTOE			LCM5			RHEE			RSTL			RLCA			RTOE			RCM5
		X1	Y1	Z1	X2	Y2	Z2	X3	Y3	Z3	X4	Y4	Z4	X5	Y5	Z5	X6	Y6	Z6	X7	Y7	Z7	X8	Y8	Z8	X9	Y9	Z9	X10	Y10	Z10	X11	Y11	Z11	X12	Y12	Z12	X13	Y13	Z13	X14	Y14	Z14	X15	Y15	Z15	X16	Y16	Z16	X17	Y17	Z17	X18	Y18	Z18	X19	Y19	Z19	X20	Y20	Z20	X21	Y21	Z21	X22	Y22	Z22	X23	Y23	Z23	X24	Y24	Z24	X25	Y25	Z25	X26	Y26	Z26	X27	Y27	Z27	X28	Y28	Z28	X29	Y29	Z29	X30	Y30	Z30	X31	Y31	Z31	X32	Y32	Z32	X33	Y33	Z33	X34	Y34	Z34	X35	Y35	Z35	X36	Y36	Z36	X37	Y37	Z37	X38	Y38	Z38	X39	Y39	Z39	X40	Y40	Z40	X41	Y41	Z41	X42	Y42	Z42	X43	Y43	Z43	X44	Y44	Z44	X45	Y45	Z45	X46	Y46	Z46	X47	Y47	Z47

287	2.86	704.78	1423.3	-109.18	667.93	1169.8	-147.09	819.93	1340.5	-105.27	845.47	1188.8	-110.29	785.8	1392.1	-321.03	730.68	1365.9	82.371	653.17	1334.9	3.6304	834.43	900.96	-181.04	762.51	911.61	3.2913	658.8	952.35	-189.3	632.84	966.99	-121.62	801.61	968.65	-257.69	699.33	991.98	20.927	905.61	696.51	-257.71	870.53	726.83	-265.86	880.08	675.24	-269.93	936.42	619.14	-301.05	998.73	513.88	-222.41	NaN	NaN	NaN	636.64	638.63	8.6112	664.35	666.32	14.395	604.56	681.22	8.3263	631.04	573.2	39.307	626.03	451.88	-47.886	NaN	NaN	NaN	1003.8	330.89	-247.03	1031.3	380.87	-225.88	985.67	372.34	-247.1	1081.3	281.07	-253.16	1049.3	96.787	-214.89	1051.1	111.46	-127.14	539.09	326.79	-34.706	578.93	354.57	-50.403	539.21	380.12	-27.465	523.99	252.12	-0.88275	406.97	117.57	-60.487	412.72	137.45	-146.11	1003	64.831	-171.9	1059	81.904	-129.85	1061.9	71.926	-207.79	1172.2	103.79	-161.68	1169.7	93.202	-205.98	354.19	138.45	-92.569	396.05	104.03	-143.56	402.02	91.73	-66.347	505.76	45.746	-119.01	484.65	33.523	-64.001
288	2.87	723.14	1420.8	-110.25	685.82	1167.1	-147.01	838	1337.5	-105.05	863.08	1185.7	-109.12	805.78	1388.1	-321.22	747.42	1364.1	81.813	670.36	1332.9	2.6139	853.33	898.34	-178.7	779.96	908.73	4.5238	677.51	949.43	-188.93	650.93	963.9	-121.46	820.87	965.91	-256.23	715.95	989.27	21.501	924.43	692.63	-255.76	889.55	723.02	-263.54	898.88	671.75	-268.64	955.26	615.67	-299.73	1017.5	511.28	-219.93	NaN	NaN	NaN	650.62	636.24	9.7757	678.83	663.53	14.915	619.07	679.35	9.9361	644.37	570.6	40.279	635.52	449.49	-47.159	NaN	NaN	NaN	1028.4	328.29	-242.61	1054.3	379.88	-223.37	1008.2	368.98	-242.75	1107.9	282.16	-250.92	1086.4	97.574	-208.26	1089.9	113.36	-120.37	546.01	326.07	-34.089	586.49	353.07	-49.648	546.99	379.49	-26.619	529.78	251.28	-0.5399	409.25	119.72	-59.994	415.52	139.69	-145.72	1042.9	64.093	-163.25	1099.2	84.219	-122.99	1100.3	73.203	-201.2	1210.7	110.41	-159.34	1207	99.474	-203.02	357.18	141.78	-92.129	398.27	106.72	-143.3	403.88	94.24	-65.929	506.44	45.834	-119.36	485.17	33.781	-64.062
289	2.88	741.59	1418	-111.29	704.05	1164.1	-146.92	856.19	1334.4	-104.9	880.89	1182.4	-108.04	826.01	1384	-321.51	764.29	1362.1	81.276	687.73	1330.7	1.4706	872.61	895.52	-176.54	797.79	905.55	5.6329	696.39	946.24	-188.51	669.12	960.49	-121.12	840.31	962.94	-254.74	733.01	986.18	22.149	943.64	688.29	-253.74	909.26	719.19	-262.02	918.21	667.78	-267.73	975.67	612.24	-298.63	1036.9	508.63	-217.37	NaN	NaN	NaN	665.29	633.65	10.948	694.12	660.44	15.53	634.38	677.17	11.532	658.4	567.86	41.444	645.91	447.05	-46.279	NaN	NaN	NaN	1051.5	325.77	-238.09	1076.4	378.63	-220.66	1030	365.54	-238.15	1132.4	282.18	-248.62	1118.7	97.859	-201.33	1124.4	115.27	-113.89	553.38	325.12	-33.889	594.69	351.57	-48.882	555.8	378.56	-25.672	535.75	250.95	-0.13262	412.28	122.43	-59.401	418.93	142.31	-145.24	1077.8	63.546	-154.47	1134.6	86.085	-116.21	1133.7	73.984	-194.22	1244.1	115.31	-156.4	1239.2	104.09	-200.25	360.78	145.81	-91.46	400.91	109.68	-142.57	406.78	96.848	-65.782	507.29	45.699	-119.25	485.88	34.166	-63.963
290	2.89	760.09	1415.3	-112.25	722.48	1161.1	-146.8	874.14	1331.1	-104.6	898.94	1179.3	-107.12	846.34	1380.2	-321.68	781.38	1360.2	80.466	705.26	1328.5	0.29546	892.1	892.26	-174.38	816.31	902.26	7.2684	715.61	942.74	-187.85	687.68	956.86	-120.71	859.95	959.8	-253.32	750.39	982.85	22.807	963.92	684.26	-251.75	929.84	715.29	-260.62	938.76	664.07	-266.92	996.82	607.49	-297.15	1056.8	505.92	-214.51	NaN	NaN	NaN	680.89	630.83	12.141	710.04	657.36	16.413	650.49	674.92	13.126	673.42	564.98	42.652	657.31	444.61	-45.185	NaN	NaN	NaN	1073.5	323.02	-233.57	1097.7	376.74	-217.68	1051.2	362.5	-233.58	1155.3	281.18	-245.21	1146.4	97.21	-194.71	1153.8	116.01	-107.5	562.23	324.74	-32.837	603.83	350.1	-47.989	565.37	378.12	-24.651	542.53	250.9	0.38765	415.95	125.57	-58.783	423.23	145.3	-144.54	1107.5	62.659	-146.28	1164.8	86.999	-109.59	1162.1	73.907	-187.56	1272.7	118.04	-153.58	1266.4	106.46	-197.22	365.18	150.54	-90.81	404.42	113.27	-142.04	409.61	100.21	-65.127	508.43	45.679	-119.46	486.79	34.572	-64.027
291	2.9	778.62	1412.3	-113.5	741.46	1157.7	-146.82	892.89	1328.1	-104.54	917.42	1176.1	-106.15	866.61	1376.3	-321.88	798.58	1358	79.593	722.96	1326.1	-1.0127	912.03	888.99	-172.52	834.49	898.77	8.4584	735.04	939.06	-187.13	706.68	953.02	-120.22	879.64	956.19	-251.67	768.12	979.36	23.521	985.01	680.95	-249.52	951.21	711.77	-259.2	959.99	660.68	-265	1019.1	603.79	-294.78	1077.2	503.25	-211.48	NaN	NaN	NaN	697.12	628.11	13.614	726.64	654.33	17.659	667.03	672.44	14.816	688.94	562.67	44.198	670.08	442.2	-43.744	NaN	NaN	NaN	1094.4	320.15	-228.85	1118.4	374.29	-214.11	1071.8	359.54	-229.06	1176.4	278.92	-241.26	1169.3	95.219	-188.37	1178	115.11	-101.56	571.57	324.77	-31.696	614.19	348.74	-46.799	576.4	377.85	-23.492	550.15	251.3	1.3462	420.9	129.06	-58.091	428.59	148.93	-143.72	1131.9	61.087	-138.89	1189.5	86.241	-103.23	1185.4	72.068	-180.85	1296.3	117.81	-149.93	1289	105.99	-193.45	370.6	155.87	-90.015	408.9	117.4	-141.24	413.4	104.08	-64.469	509.76	45.443	-119.2	487.79	34.896	-64.12
292	2.91	797.15	1409.4	-114.62	760.75	1154.3	-146.82	911.39	1325	-104.57	936.18	1173	-105.3	886.93	1372.6	-322.2	815.82	1355.8	78.649	740.79	1323.6	-2.3217	932.3	885.48	-170.68	853.05	895.28	10.106	754.92	935.3	-186.44	726.12	949.14	-119.85	899.65	952.47	-250.55	786	975.77	24.418	1006.7	678.3	-248.11	972.68	708.97	-257.86	981.09	657.47	-262.31	1040.7	600.4	-291.35	1097.9	500.4	-208.26	NaN	NaN	NaN	713.62	625.4	15.048	743.15	651.56	18.925	683.89	669.82	16.117	705.51	560.09	46.051	684.02	439.69	-41.876	NaN	NaN	NaN	1113.9	317.08	-224.02	1138.6	371.18	-210.04	1091.5	356.45	-224.32	1195.6	275.29	-236.87	1187.9	92.232	-182.2	1197.1	112.31	-95.638	582.44	324.38	-30.873	625.57	347.8	-44.886	588.8	377.65	-22.251	558.78	252.09	2.768	426.33	133.22	-56.933	435.13	152.79	-142.54	1150.6	58.163	-132.3	1208.6	83.273	-97.267	1204.1	69.102	-175.28	1315.2	114.65	-145.18	1307.2	102.62	-188.67	377.23	162.07	-89.182	414.16	122.38	-140.24	417.86	108.47	-63.482	511.2	45.397	-119.23	488.96	35.437	-64.039
293	2.92	815.57	1406.3	-115.87	780.38	1150.9	-146.72	930.14	1322.1	-104.6	955.35	1170.1	-104.46	907.12	1369.1	-322.56	833.16	1353.4	77.58	758.65	1320.8	-3.6861	953.22	882.11	-168.84	869.55	891.71	11.166	775.31	931.46	-185.61	746.02	945.27	-119.43	919.83	948.35	-249.04	804.11	972.4	25.329	1027.9	675.3	-246.6	993.84	706.3	-256.57	1001.9	654.38	-258.76	1060.3	597.32	-288.55	1118.8	497.14	-204.69	NaN	NaN	NaN	730.18	622.9	16.698	759.69	648.59	20.387	700.76	667.42	17.215	721.29	557.65	48.079	699.16	437.02	-39.554	NaN	NaN	NaN	1132.3	313.66	-219.41	1157.9	367.38	-205.43	1110.8	353.42	-219.88	1213.3	270.32	-231.59	1202.3	87.686	-176.51	1211.6	107.85	-89.787	594.36	324.63	-28.937	638.1	346.37	-43.215	602.2	377.49	-20.783	568.21	253.17	4.6473	432.63	137.77	-55.317	442.61	157.16	-141.02	1164.6	54.2	-126.53	1222.7	78.43	-91.487	1218.1	64.266	-169.43	1329.6	108.41	-139.47	1321.4	96.275	-182.78	384.99	168.57	-87.972	420.67	127.55	-138.81	423.33	113.18	-62.167	513.04	45.319	-118.93	490.17	35.951	-63.607
